<svg width="512" height="512" viewBox="0 0 512 512" fill="none" xmlns="http://www.w3.org/2000/svg">
  <rect width="512" height="512" rx="128" fill="#101014"/>
  <path d="M342 116v187.6c0 39.9-32.6 72.4-72.8 72.4-36.1 0-65.2-23.7-65.2-52.9s29.1-52.9 65.2-52.9c14.4 0 27.7 3.8 38.5 10.2V180.7l-134.4 28.9v124c0 39.9-32.6 72.4-72.8 72.4-36.1 0-65.2-23.7-65.2-52.9s29.1-52.9 65.2-52.9c14.4 0 27.7 3.8 38.5 10.2V163.6L342 116Z" fill="#F5F5F7"/>
  <path d="M173.3 163.6 342 127.3v53.4l-168.7 36.2v-53.3Z" fill="#FF4F7B"/>
</svg>
